<svg fill="none" height="24" viewBox="0 0 24 24" width="24" xmlns="http://www.w3.org/2000/svg" xmlns:xlink="http://www.w3.org/1999/xlink"><clipPath id="a"><path d="m0 0h24v24h-24z"/></clipPath><g clip-path="url(#a)"><path clip-rule="evenodd" d="m21.672 3.886-9.188-3.814c-.23-.096-.488-.096-.719 0l-9.186 3.814c-.35.146-.578.487-.578.866v4.637c0 6.385 3.86 12.129 9.77 14.541.228.093.482.093.71 0 5.91-2.412 9.77-8.156 9.77-14.54v-4.639c0-.379-.228-.72-.578-.866zm-1.297 5.504c0 5.428-3.188 10.425-8.25 12.655-4.927-2.17-8.25-7.08-8.25-12.655v-4.012l8.25-3.425 8.25 3.425v4.011zm-5.257-.87-4.03 4.03-1.956-1.957c-.366-.366-.96-.366-1.326 0s-.366.96 0 1.326l2.62 2.62c.366.366.96.366 1.326 0l4.692-4.693c.366-.366.366-.96 0-1.325-.366-.366-.96-.366-1.326 0z" fill="#5d5e5c" fill-rule="evenodd"/><path d="m12.485.072.115-.277zm9.187 3.814.115-.277zm-9.907-3.814.116.277zm-9.186 3.814-.115-.277zm9.193 20.044-.114.278.114-.277zm.708 0 .114.278-.114-.277zm-.354-1.886-.121.275.121.053.121-.053zm-8.251-16.666-.115-.278-.185.077v.2h.3zm8.25-3.425.115-.278-.115-.047-.115.048zm8.25 3.425h.3v-.2l-.185-.078-.115.277zm-9.286 7.171-.212.212.212.212.212-.212zm4.03-4.03.212.213-.213-.212zm-5.987 2.073-.212.212zm-1.326 0-.212-.212zm0 1.326-.212.212zm2.62 2.62-.212.212zm1.326 0 .212.212zm4.692-4.693-.212-.212zm0-1.325.212-.212zm-4.074-8.171 9.188 3.814.23-.554-9.188-3.814zm-.488 0c.156-.065.332-.065.489 0l.23-.554c-.304-.126-.646-.127-.95 0l.23.554zm-9.189 3.814 9.188-3.813-.23-.554-9.188 3.814.23.554zm-.393.589c0-.258.155-.49.393-.589l-.23-.554c-.462.192-.763.643-.763 1.143zm0 4.637v-4.637h-.6v4.637zm9.584 14.264c-5.799-2.367-9.584-8-9.584-14.264h-.6c0 6.507 3.933 12.36 9.957 14.82zm.482 0c-.155.063-.327.063-.482 0l-.227.555c.3.123.636.123.936 0zm9.584-14.264c0 6.263-3.785 11.897-9.584 14.264l.227.555c6.024-2.459 9.957-8.312 9.957-14.819zm0-4.637v4.637h.6v-4.637zm-.393-.589c.238.1.393.331.393.589h.6c0-.5-.301-.951-.763-1.143zm-9.311 18.157c5.173-2.28 8.429-7.384 8.429-12.93h-.6c0 5.31-3.119 10.199-8.071 12.38zm-8.671-12.931c0 5.696 3.395 10.712 8.429 12.93l.242-.55c-4.82-2.123-8.071-6.926-8.071-12.38h-.6zm0-4.011v4.011h.6v-4.011zm8.435-3.703-8.25 3.426.23.554 8.25-3.425-.23-.554zm8.48 3.426-8.25-3.425-.23.554 8.25 3.425zm.185 4.288v-4.011h-.6v4.011zm-9.374 3.372 4.03-4.03-.425-.423-4.03 4.029zm-2.381-1.957 1.957 1.957.424-.424-1.957-1.957zm-.902 0c.249-.249.653-.249.902 0l.424-.424c-.483-.483-1.267-.483-1.75 0zm0 .902c-.249-.25-.249-.653 0-.902l-.424-.424c-.484.483-.484 1.267 0 1.75zm2.62 2.62-2.62-2.62-.424.424 2.62 2.62zm.902 0c-.25.249-.653.249-.902 0l-.424.424c.483.483 1.266.483 1.75 0zm4.692-4.693-4.692 4.693.424.424 4.692-4.692zm0-.901c.249.249.249.652 0 .901l.424.425c.484-.484.484-1.267 0-1.75zm-.901 0c.248-.25.652-.25.901 0l.424-.424c-.483-.484-1.266-.484-1.75 0z" fill="#fff" fill-opacity=".9"/></g></svg>